<svg width="157" height="127" viewBox="0 0 157 127" fill="none" xmlns="http://www.w3.org/2000/svg">
  <path d="M63.0052 75.9607L66.0984 72.8367L68.2821 70.6335L73.5544 65.3064L94.6506 44H64.8175L64.5529 44.2673L60.8238 48.0335L55.5492 53.3607L54.2706 54.6521L53.3655 55.5684L49.7253 59.2426L49.5452 59.4245L45.9073 63.1009L45 64.015V75.9584H58.6379L63.0052 75.9607Z" fill="#ff6969"/>
  <path d="M64.8175 78.0654L54.2706 88.7175L53.3655 89.6338L49.7253 93.308L49.5452 93.4899L45.9073 97.1664L45 98.0804V110.024H58.6379L63.0052 110.026L66.0984 106.902L68.2821 104.699L73.5544 99.3718L94.6506 78.0654H64.8175Z" fill="#ff6969"/>
  <path d="M121.18 30.4964L124.132 27.5155L126.215 25.4133L131.246 20.3302L151.376 0H122.91L122.657 0.255011L119.099 3.84874L114.066 8.93183L112.846 10.164L111.982 11.0383L108.509 14.5442L108.337 14.7178L104.866 18.2258L104 19.098V30.4942H117.013L121.18 30.4964Z" fill="#ff6969" fill-opacity="0.5"/>
  <path d="M150.177 33.0039L130.891 52.4823L130.891 52.4824L125.86 57.5652L125.86 57.5655L123.777 59.6674L123.776 59.6676L120.972 62.5002L117.013 62.4981H117.013H104.5V51.8079L105.221 51.0819L105.221 51.0814L108.692 47.5735L108.692 47.5734L108.864 47.4L108.864 47.3999L112.337 43.8942L112.338 43.8936L113.201 43.0197L113.202 43.0193L123.118 33.0039H150.177Z" stroke="#ff6969"/>
  <path d="M128.5 91.1663V84.8964L128.885 84.5087L128.885 84.5082L131.01 82.361L131.01 82.3608L131.115 82.2548L131.115 82.2547L133.241 80.1088L133.242 80.1082L133.77 79.5735L133.771 79.573L134.517 78.8192L137.598 75.7077L139.776 73.5079L139.784 73.5H155.801L144.323 85.0929L144.323 85.0929L141.243 88.2042L141.243 88.2044L139.968 89.491L139.968 89.4912L138.308 91.1675L135.966 91.1663H135.966H128.5ZM139.575 73.3091L139.421 73.1561L139.575 73.3091Z" stroke="#ff6969" stroke-opacity="0.5"/>
  <path d="M155.801 93.3965L144.323 104.989L144.323 104.989L141.243 108.101L141.243 108.101L139.968 109.387L139.968 109.388L138.308 111.064L135.966 111.063H135.966H128.5V104.793L128.885 104.405L128.885 104.405L131.01 102.257L131.01 102.257L131.115 102.151L131.115 102.151L133.241 100.005L133.242 100.005L133.77 99.47L133.771 99.4695L139.784 93.3965H155.801Z" stroke="#ff6969" stroke-opacity="0.5"/>
  <path d="M92.5 115.656V112.567L92.6432 112.422L92.6437 112.422L93.7997 111.254L93.7999 111.253L93.8569 111.196L93.857 111.196L95.0137 110.028L95.0142 110.028L95.3014 109.737L95.3019 109.737L95.7078 109.327L97.384 107.634L98.5064 106.5H106.58L100.719 112.419L100.719 112.419L99.0438 114.112L99.0435 114.112L98.3498 114.812L98.3496 114.812L97.5135 115.657L96.3343 115.656H96.334H92.5Z" stroke="#ff6969" stroke-opacity="0.5"/>
  <path d="M106.58 117.325L100.719 123.244L100.719 123.244L99.0438 124.937L99.0435 124.937L98.3498 125.637L98.3496 125.638L97.5135 126.482L96.3343 126.481H96.334H92.5V123.392L92.6432 123.248L92.6437 123.247L93.7997 122.079L93.7999 122.079L93.8569 122.021L93.857 122.021L95.0137 120.853L95.0142 120.853L95.3014 120.562L95.3019 120.562L98.5064 117.325H106.58Z" stroke="#ff6969" stroke-opacity="0.5"/>
  <path d="M0.5 57.3278V52.8661L0.747427 52.6168L0.747966 52.6163L2.32193 51.0257L2.32204 51.0256L2.39976 50.9471L2.39987 50.947L3.9748 49.3573L3.97534 49.3568L4.3665 48.9607L4.36693 48.9603L4.91974 48.402L7.20196 46.097L8.78324 44.5H20.2842L11.9997 52.8671L11.9996 52.8671L9.71858 55.1718L9.71833 55.1721L8.77375 56.1251L8.77357 56.1253L7.58207 57.3287L5.90112 57.3278H5.90086H0.5Z" stroke="#ff6969" stroke-opacity="0.9"/>
  <path d="M20.2842 59.2393L11.9997 67.6063L11.9996 67.6064L9.71858 69.9111L9.71833 69.9113L8.77375 70.8644L8.77357 70.8645L7.58207 72.0679L5.90112 72.0671H5.90086H0.5V67.6054L0.747427 67.3561L0.747966 67.3556L2.32193 65.7649L2.32204 65.7648L2.39976 65.6863L2.39987 65.6862L3.9748 64.0966L3.97534 64.096L4.3665 63.7L4.36693 63.6996L8.78324 59.2393H20.2842Z" stroke="#ff6969" stroke-opacity="0.9"/>
</svg>